<?xml version="1.0" encoding="UTF-8"?>
<svg id="Calque_2" data-name="Calque 2" xmlns="http://www.w3.org/2000/svg" viewBox="0 0 323.46 384">
  <defs>
    <style>
      .cls-1 {
        fill: #f8f8f8;
      }
    </style>
  </defs>
  <g id="Calque_1-2" data-name="Calque 1">
    <g>
      <path class="cls-1" d="M170.7,0c5.5,1.28,11.13,1.82,16.63,3.21,40.05,10.12,70.83,45.66,75.48,86.75l47.41.12c7.86.95,13.23,7.34,13.22,15.26l-.23,146.09c-1.72,11.7-16.13,16.65-24.88,8.82-1.71-1.53-4.87-6.48-4.87-8.62V120h-29.94v47.62c0,6.36-8.55,12.32-14.6,12.43s-15.34-5.72-15.34-12.43v-47.62H89.86v47.62c0,6.36-8.55,12.32-14.6,12.43s-15.34-5.72-15.34-12.43v-47.62h-29.94v234h161.31c1.89,0,6.82,2.98,8.26,4.47,8.29,8.61,3.43,22.8-7.89,25.53H12.01c-7.3-2.39-11.33-6.76-12-14.6V105.34c-.02-7.91,5.34-14.31,13.21-15.26l47.41-.12C65.29,48.58,96.03,13.63,136.1,3.21l16.63-3.21h17.96ZM232.83,90c-7.8-40.85-46.49-67.53-87.59-58.13-28.08,6.42-49.38,30.02-54.64,58.13h142.22Z"/>
      <path class="cls-1" d="M275.49,384c-4.85-1.02-11.98-7.23-11.98-12.38v-17.62h-17.59c-6.71,0-12.53-9.01-12.41-15.37s6.06-14.63,12.41-14.63h17.59v-17.62c0-6.72,8.99-12.55,15.34-12.43,6.05.11,14.6,6.07,14.6,12.43v17.62h17.59c6.71,0,12.53,9.01,12.41,15.37-.11,6.06-6.06,14.63-12.41,14.63h-17.59v17.62c0,5.14-7.13,11.35-11.98,12.38h-5.99Z"/>
    </g>
  </g>
</svg>