<?xml version="1.0" encoding="UTF-8"?>
<svg id="Calque_2" data-name="Calque 2" xmlns="http://www.w3.org/2000/svg" viewBox="0 0 341.27 402.84">
  <defs>
    <style>
      .cls-1 {
        fill: #f8f8f8;
      }
    </style>
  </defs>
  <g id="Calque_1-2" data-name="Calque 1">
    <g>
      <path class="cls-1" d="M177.39.31c73.19,6.1,113.52,91.36,73.16,152.49-38.97,59.04-124.7,58.85-164.51.62C44.48,92.63,85.8,6.25,159.03.31c5.05-.41,13.33-.42,18.36,0ZM160.46,18.49c-51.85,4.62-83.21,62.95-58.54,109.08,24.61,46.02,88.23,53.52,122.6,13.97,44.21-50.88,3.17-129.04-64.06-123.05Z"/>
      <path class="cls-1" d="M87.02,191.59c12.93-.18,23.75,10.61,34.55,16.88,30.64,17.78,63.18,19.3,94.68,2.2,9.33-5.06,25.7-19.18,35.84-19.31,66.08-.83,86.75,72.26,89.02,125.65,2.04,47.99-14.93,80.4-65.87,85.83l-210.02-.04C16.39,397.24-1.55,365.99.1,319.4c1.89-53.31,21.25-126.87,86.92-127.81ZM87.02,215.48c-39.27,1.56-53.8,39.98-59.48,73.09-2.81,16.35-5.75,44.93-1.27,60.61,5.34,18.71,22.69,28.45,41.31,29.73h206.06c43.65-4.02,45.81-36.1,42.68-72.23s-16.82-90.05-62.57-91.12c-13.89,7.75-25.75,17.15-40.8,22.92-45.44,17.44-86.68,5.27-124.24-22.76l-1.68-.23Z"/>
    </g>
  </g>
</svg>